{"title":"Bellator 153 Prelims 720p WEB-DL x264 [TJET]","uid":14418951,"size":1050944418,"categoryP":"video","categoryS":"hd___tv_shows","magnet":"?xt=urn:btih:a2acf5dccc8cf91e20469f236eb99ef4bf5be534&amp;dn=Bellator+153+Prelims+720p+WEB-DL+x264+%5BTJET%5D&amp;tr=udp%3A%2F%2Ftracker.leechers-paradise.org%3A6969&amp;tr=udp%3A%2F%2Fzer0day.ch%3A1337&amp;tr=udp%3A%2F%2Fopen.demonii.com%3A1337&amp;tr=udp%3A%2F%2Ftracker.coppersurfer.tk%3A6969&amp;tr=udp%3A%2F%2Fexodus.desync.com%3A6969","seeders":0,"leechers":1,"uploader":"CenaCme","files":2,"time":1461523100,"description":"Djamil Chan vs Richard Patishnock\r\nMatt Secor vs Chris Honeycutt\r\nJoe Cronin vs Mike Zichelle\r\n\r\nGeneral\r\nComplete name                            : Bellator.153.Prelims.720p.WEB-DL.x264.mp4\r\nFormat                                   : MPEG-4\r\nFormat profile                           : Base Media\r\nCodec ID                                 : isom\r\nFile size                                : 1 002 MiB\r\nDuration                                 : 40mn 2s\r\nOverall bit rate mode                    : Constant\r\nOverall bit rate                         : 3 500 Kbps\r\nWriting application                      : Lavf57.25.100\r\n\r\nVideo\r\nID                                       : 1\r\nFormat                                   : AVC\r\nFormat/Info                              : Advanced Video Codec\r\nFormat profile                           :   \r\nFormat settings, CABAC                   : Yes\r\nFormat settings, ReFrames                : 4 frames\r\nFormat settings, GOP                     : M=4, N=90\r\nCodec ID                                 : avc1\r\nCodec ID/Info                            : Advanced Video Coding\r\nDuration                                 : 40mn 1s\r\nBit rate mode                            : Constant\r\nBit rate                                 : 3 404 Kbps\r\nWidth                                    : 1 280 pixels\r\nHeight                                   : 720 pixels\r\nDisplay aspect ratio                     : 16:9\r\nFrame rate mode                          : Variable\r\nFrame rate                               : 29.970 fps\r\nMinimum frame rate                       : 29.412 fps\r\nMaximum frame rate                       : 30.303 fps\r\nStandard                                 : NTSC\r\nColor space                              : YUV\r\nChroma subsampling                       : 4:2:0\r\nBit depth                                : 8 bits\r\nScan type                                : Progressive\r\nBits/(Pixel*Frame)                       : 0.123\r\nStream size                              : 973 MiB (97%)\r\nColor primaries                          : BT.709\r\nTransfer characteristics                 : BT.709\r\nMatrix coefficients                      : BT.709\r\n\r\nAudio\r\nID                                       : 2\r\nFormat                                   : AAC\r\nFormat/Info                              : Advanced Audio Codec\r\nFormat profile                           : HE-AAC / LC\r\nCodec ID                                 : 40\r\nDuration                                 : 40mn 2s\r\nBit rate mode                            : Constant\r\nBit rate                                 : 96.0 Kbps\r\nChannel(s)                               : 2 channels\r\nChannel positions                        : Front: L R\r\nSampling rate                            : 48.0 KHz / 24.0 KHz\r\nCompression mode                         : Lossy\r\nStream size                              : 27.1 MiB (3%)\r\n\r\n\r\nThumb sheet:\r\n \nhttps://extraimago.com/image/aR4y","torrent":{"xt":"urn:btih:a2acf5dccc8cf91e20469f236eb99ef4bf5be534","amp;dn":"Bellator+153+Prelims+720p+WEB-DL+x264+%5BTJET%5D","amp;tr":["udp%3A%2F%2Ftracker.leechers-paradise.org%3A6969","udp%3A%2F%2Fzer0day.ch%3A1337","udp%3A%2F%2Fopen.demonii.com%3A1337","udp%3A%2F%2Ftracker.coppersurfer.tk%3A6969","udp%3A%2F%2Fexodus.desync.com%3A6969"],"infoHash":"a2acf5dccc8cf91e20469f236eb99ef4bf5be534","infoHashBuffer":{"type":"Buffer","data":[162,172,245,220,204,140,249,30,32,70,159,35,110,185,158,244,191,91,229,52]},"announce":[],"urlList":[]}}